<?xml version="1.0" encoding="utf-8"?>
<!-- Generator: Adobe Illustrator 23.0.2, SVG Export Plug-In . SVG Version: 6.00 Build 0)  -->
<svg version="1.1" id="Capa_1" xmlns="http://www.w3.org/2000/svg" xmlns:xlink="http://www.w3.org/1999/xlink" x="0px" y="0px"
	 viewBox="0 0 33 32" style="enable-background:new 0 0 33 32;" xml:space="preserve">
<style type="text/css">
	.st0{fill:#00354E;}
</style>
<path class="st0" d="M31.8,1.6l-6.5-1.5c-0.7-0.2-1.4,0.2-1.8,0.9l-3,7c-0.2,0.6-0.1,1.3,0.4,1.8l3.8,3.1
	c-2.2,4.8-6.2,8.8-11.1,11.1l-3.1-3.8c-0.4-0.5-1.1-0.7-1.8-0.4l-7,3c-0.7,0.3-1,1.1-0.9,1.8l1.5,6.5C2.7,31.6,3.2,32,4,32
	c16,0,29-12.9,29-29C33,2.3,32.5,1.8,31.8,1.6z"/>
</svg>
