<?xml version="1.0" encoding="utf-8"?>
<!-- Generator: Adobe Illustrator 23.0.2, SVG Export Plug-In . SVG Version: 6.00 Build 0)  -->
<svg version="1.1" id="Capa_1" xmlns="http://www.w3.org/2000/svg" xmlns:xlink="http://www.w3.org/1999/xlink" x="0px" y="0px"
	 viewBox="0 0 37 28" style="enable-background:new 0 0 37 28;" xml:space="preserve">
<style type="text/css">
	.st0{fill:#00354E;}
</style>
<path class="st0" d="M18.5,7.3L7,16.8V27c0,0.6,0.4,1,1,1h7c0.5,0,0.9-0.4,0.9-1v-6c0-0.5,0.5-1,1-1h4c0.6,0,1,0.5,1,1v6
	c0,0.6,0.5,1,1,1H30c0.5,0,1-0.4,1-1V16.8L19.4,7.3c-0.1-0.1-0.3-0.2-0.4-0.2C18.8,7.1,18.6,7.2,18.5,7.3z M36.7,13.8l-5.2-4.3V0.8
	c0-0.4-0.4-0.8-0.8-0.8h-3.5c-0.4,0-0.8,0.3-0.8,0.8v4.5l-5.6-4.6c-0.5-0.4-1.2-0.6-1.9-0.6c-0.8,0-1.4,0.2-1.9,0.6L1.2,13.8
	c-0.2,0.1-0.3,0.4-0.3,0.6s0.1,0.4,0.2,0.5l1.6,1.9C2.9,16.9,3.1,17,3.3,17c0.2,0,0.4-0.1,0.5-0.2L18.5,4.8c0.1-0.1,0.3-0.2,0.5-0.2
	c0.1,0,0.3,0.1,0.4,0.2l14.7,12.1c0.1,0.1,0.3,0.2,0.5,0.2c0.2,0,0.4-0.1,0.6-0.2l1.6-1.9c0.1-0.1,0.2-0.3,0.2-0.5
	S36.9,13.9,36.7,13.8z"/>
</svg>
