<?xml version="1.0" encoding="utf-8"?>
<!-- Generator: Adobe Illustrator 23.0.2, SVG Export Plug-In . SVG Version: 6.00 Build 0)  -->
<svg version="1.1" xmlns="http://www.w3.org/2000/svg" xmlns:xlink="http://www.w3.org/1999/xlink" x="0px" y="0px"
	 viewBox="0 0 400 400" style="enable-background:new 0 0 400 400;" xml:space="preserve">
<style type="text/css">
	.st0{fill:transparent;
		stroke:black;
		stroke-width:0.25;
			stroke-dasharray: 400;
			stroke-dashoffset: 0;
			stroke-miterlimit: 10;
			-webkit-animation: lineas 4s forwards;
			-moz-animation: lineas 4s forwards;
			-o-animation: lineas 4s forwards;
			animation: lineas 4s forwards;
		}

	.st1{fill:transparent;
		stroke:black;
		stroke-width:0.25;
		stroke-dasharray: 760;
		stroke-dashoffset: 0;
		stroke-miterlimit: 10;
			-webkit-animation: circulos 5s forwards;
			-moz-animation: circulos 5s forwards;
			-o-animation: circulos 5s forwards;
			animation: circulos 5s forwards;
		}

	.st2{display:transparent;
		fill:transparent;
		stroke:black;
		stroke-width:1;
		stroke-dasharray: 1300;
		stroke-dashoffset: 0;
		stroke-miterlimit:10;
			-webkit-animation: trazo 6s forwards;
			-moz-animation: trazo 6s forwards;
			-o-animation: trazo 6s forwards;
			animation: trazo 6s forwards;
		}

	.st3{fill:transparent;
		stroke:none;
			-webkit-animation: logos 4s forwards 5s;
			-moz-animation: logos 4s forwards 5s;
			-o-animation: logos 4s forwards 5s;
			animation: logos 4s forwards 5s;
		}

		@-webkit-keyframes lineas {
			0% {
				stroke-dashoffset: 400;
			}
			90% {
				stroke: #000;
			}

			100% {
				stroke-dashoffset: 0;
				stroke: transparent;
			}
		}
		@-keyframes lineas {
			0% {
				stroke-dashoffset: 400;
			}
			90% {
				stroke: #000;
			}

			100% {
				stroke-dashoffset: 0;
				stroke: transparent;
			}
		}

		@-webkit-keyframes circulos {
			0% {
				stroke-dashoffset: 760;
			}
			90% {
				stroke: #000;
			}

			100% {
				stroke-dashoffset: 0;
				stroke: transparent;
			}
		}
		@-keyframes circulos {
			0% {
				stroke-dashoffset: 760;
			}
			90% {
				stroke: #000;
			}

			100% {
				stroke-dashoffset: 0;
				stroke: transparent;
			}
		}

		@-webkit-keyframes trazo {
			0% {
				stroke-dashoffset: 1300;
			}
			90% {
				stroke: #000;
			}

			100% {
				stroke-dashoffset: 0;
				stroke: transparent;
			}
		}
		@-keyframes trazo {
			0% {
				stroke-dashoffset: 1300;
			}
			90% {
				stroke: #000;
			}

			100% {
				stroke-dashoffset: 0;
				stroke: transparent;
			}
		}

		@-webkit-keyframes logos {
			from {
				fill: transparent;
			}

			to {
				fill: #000;
			}
		}
		@-keyframes logos {
			from {
				fill: transparent;
			}

			to {
				fill: #000;
			}
		}
</style>
<g id="_x31__linea">
	<path id="_x31__lineas" class="st0" d="M200,0v400 M400,200H0"/>
</g>
<g id="_x32__circulo">
	<path id="_x32__circulos" class="st1" d="M320,200H200v-40h120V200z M200,120c-44.183,0-80,35.817-80,80s35.817,80,80,80
		s80-35.817,80-80S244.183,120,200,120z M200,80c-66.274,0-120,53.726-120,120s53.726,120,120,120s120-53.726,120-120
		S266.274,80,200,80z"/>
</g>
<g id="_x33__Trazo_g">
	<path id="_x33__G_trazo" class="st2" d="M313.189,160H200v40h79.981v0.765C279.568,244.594,243.926,280,200,280
		c-44.183,0-80-35.817-80-80s35.817-80,80-80V80c-66.274,0-120,53.726-120,120s53.726,120,120,120
		c65.701,0,119.061-52.803,119.978-118.287H320V200v-1.424v-7.245C318.975,178.386,315.644,166.961,313.189,160z"/>
</g>
<g id="_x34__logo">
	<path id="_x34__logos" class="st3" d="M240,200h-40v-40h40V200z M200,280c-44.183,0-80-35.817-80-80s35.817-80,80-80V80
		c-66.274,0-120,53.726-120,120s53.726,120,120,120s120-53.726,120-120h-40C280,244.183,244.183,280,200,280z"/>
</g>
</svg>
