<?xml version="1.0" encoding="utf-8"?>
<!-- Generator: Adobe Illustrator 23.0.2, SVG Export Plug-In . SVG Version: 6.00 Build 0)  -->
<svg version="1.1" id="Capa_1" xmlns="http://www.w3.org/2000/svg" xmlns:xlink="http://www.w3.org/1999/xlink" x="0px" y="0px"
	 viewBox="0 0 600 200" style="enable-background:new 0 0 600 200;" xml:space="preserve">
<style type="text/css">
	.st0{fill:#FFFFFF;}
</style>
<g>
	<path d="M223.293,86.789h-12.175V62.583h12.175V86.789z M78.319,98.894c0-13.387-10.852-24.239-24.239-24.239
		c-13.387,0-24.239,10.852-24.239,24.239s10.852,24.239,24.239,24.239C67.466,123.134,78.319,112.281,78.319,98.894z
		 M356.053,98.885v36.543h-12.134V98.361h-0.015c-0.297-13.168-11.055-23.754-24.295-23.754c-12.595,0-22.938,9.582-24.171,21.852
		v2.496v60.506v0.115h-0.003c-0.062,20.035-16.32,36.259-36.37,36.259c-20.088,0-36.373-16.285-36.373-36.373h12.134
		c0,13.387,10.852,24.239,24.239,24.239c13.387,0,24.239-10.852,24.239-24.239l-0.085-33.321
		c-6.424,5.712-14.881,9.188-24.154,9.188c-17.848,0-32.683-12.859-35.772-29.815v29.914h-12.175v-29.742
		c-0.361,1.916-0.866,3.78-1.515,5.577h0.058c-4.651,12.863-16.349,22.348-30.432,23.803c-0.077,0.008-0.153,0.015-0.23,0.023
		c-0.504,0.049-1.011,0.088-1.521,0.116c-0.099,0.006-0.197,0.013-0.297,0.018c-0.575,0.027-1.152,0.045-1.733,0.045
		c-0.008,0-0.015,0-0.023,0c-0.006,0-0.012,0-0.018,0c-0.146,0-0.29-0.008-0.435-0.009c-0.348-0.004-0.696-0.008-1.042-0.023
		c-0.306-0.012-0.609-0.035-0.913-0.054c-0.191-0.013-0.383-0.022-0.573-0.037c-0.327-0.027-0.652-0.062-0.977-0.097
		c-0.165-0.018-0.331-0.034-0.496-0.054c-0.333-0.041-1.301-0.184-1.455-0.209c-0.334-0.055-0.666-0.116-0.997-0.179
		c-0.145-0.028-0.291-0.056-0.436-0.086c-0.337-0.069-0.673-0.144-1.007-0.222c-0.131-0.031-0.262-0.062-0.393-0.095
		c-0.347-0.086-0.692-0.176-1.034-0.271c-0.106-0.03-0.212-0.061-0.318-0.091c-0.368-0.106-0.734-0.217-1.097-0.334
		c-0.06-0.019-0.119-0.04-0.179-0.06c-0.278-0.092-0.558-0.179-0.833-0.277v-0.012c-10.203-3.642-18.303-11.708-21.986-21.892
		h13.368c4.226,7.106,11.977,11.87,20.845,11.87c8.868,0,16.619-4.764,20.845-11.87h0.051c2.131-3.607,3.362-7.808,3.371-12.299
		l-97.091-0.079v0.079h-0.021V86.789h33.219c-4.2-7.279-12.057-12.181-21.065-12.181c-13.361,0-24.201,10.781-24.305,24.117v0.169
		c0,0.036-0.003,0.071-0.003,0.107c0.015,4.476,1.243,8.665,3.368,12.262h0.094c4.226,7.106,11.977,11.87,20.845,11.87
		c4.43,0,8.582-1.189,12.155-3.266v13.313c-3.192,1.132-6.589,1.828-10.12,2.024h0.046c-0.048,0.003-0.097,0.004-0.146,0.006
		c-0.216,0.011-0.433,0.021-0.65,0.029c-0.427,0.016-0.854,0.028-1.285,0.028c-0.571,0-1.138-0.017-1.703-0.043
		c-0.173-0.008-0.345-0.02-0.518-0.031c-0.4-0.024-0.799-0.054-1.196-0.091c-0.185-0.017-0.37-0.035-0.554-0.055
		c-0.42-0.046-0.837-0.099-1.252-0.159c-0.138-0.02-0.276-0.036-0.414-0.058c-0.55-0.086-1.096-0.182-1.637-0.292
		c-0.093-0.019-0.185-0.042-0.277-0.061c-0.45-0.095-0.896-0.198-1.339-0.309c-0.16-0.04-0.319-0.083-0.478-0.125
		c-0.39-0.104-0.777-0.214-1.162-0.33c-0.15-0.045-0.3-0.089-0.449-0.137c-0.474-0.15-0.945-0.309-1.411-0.477
		c-0.043-0.016-0.087-0.029-0.13-0.045c-0.523-0.192-1.039-0.396-1.55-0.611c-0.098-0.041-0.195-0.086-0.292-0.128
		c-0.408-0.176-0.812-0.358-1.213-0.548c-0.126-0.06-0.252-0.121-0.377-0.182c-0.4-0.195-0.795-0.398-1.186-0.608
		c-0.089-0.048-0.179-0.093-0.267-0.142c-0.975-0.533-1.923-1.109-2.841-1.726c-0.073-0.049-0.145-0.1-0.217-0.149
		c-0.391-0.267-0.777-0.541-1.157-0.823c-0.075-0.055-0.15-0.11-0.224-0.166c-1.348-1.014-2.622-2.12-3.815-3.309
		c-0.033-0.033-0.066-0.067-0.099-0.1c-0.384-0.386-0.76-0.78-1.127-1.182c-0.011-0.012-0.022-0.023-0.032-0.035
		c-1.248-1.373-2.392-2.841-3.42-4.393c-6.512,9.829-17.666,16.315-30.34,16.315c-20.088,0-36.373-16.285-36.373-36.373
		s16.285-36.373,36.373-36.373c9.313,0,17.805,3.504,24.239,9.261V26.119h12.134v45.772c6.44-5.795,14.959-9.325,24.305-9.325
		c12.669,0,23.818,6.485,30.325,16.312c6.507-9.827,17.656-16.312,30.324-16.312c4.268,0,8.36,0.741,12.164,2.093v13.216
		c-3.577-2.075-7.73-3.267-12.164-3.267c-9.007,0-16.865,4.903-21.065,12.181h33.228v0.079h24.155v10.799
		c0.014,0.416,0.032,0.831,0.032,1.25h10.936c0.021-20.07,16.297-36.334,36.372-36.334c9.313,0,17.805,3.504,24.239,9.261v-9.466
		h12.134v9.398c6.424-5.725,14.889-9.209,24.171-9.209c20.065,0,36.333,16.258,36.35,36.319H356.053z M283.22,100.912v-2.027h0.04
		c0-0.283,0.015-0.562,0.022-0.843c-0.481-12.963-11.136-23.326-24.216-23.326c-13.387,0-24.239,10.852-24.239,24.239
		s10.852,24.239,24.239,24.239C271.794,123.196,282.223,113.384,283.22,100.912z M223.252,38.253h-12.134v12.134h12.134V38.253z"/>
	<path class="st0" d="M221.339,84.834h-12.175V60.628h12.175V84.834z M76.364,96.94c0-13.387-10.852-24.239-24.239-24.239
		c-13.387,0-24.239,10.852-24.239,24.239s10.852,24.239,24.239,24.239C65.511,121.179,76.364,110.327,76.364,96.94z M354.098,96.931
		v36.543h-12.134V96.406h-0.015c-0.297-13.168-11.055-23.754-24.295-23.754c-12.595,0-22.938,9.582-24.171,21.852v2.496v60.506
		v0.115h-0.003c-0.062,20.035-16.32,36.259-36.37,36.259c-20.088,0-36.373-16.285-36.373-36.373h12.134
		c0,13.387,10.852,24.239,24.239,24.239c13.387,0,24.239-10.852,24.239-24.239l-0.085-33.321
		c-6.424,5.712-14.881,9.188-24.154,9.188c-17.848,0-32.683-12.859-35.772-29.815v29.914h-12.175v-29.742
		c-0.361,1.916-0.866,3.78-1.515,5.577h0.058c-4.651,12.863-16.349,22.348-30.432,23.803c-0.077,0.008-0.153,0.015-0.23,0.023
		c-0.504,0.049-1.011,0.088-1.521,0.116c-0.099,0.006-0.197,0.013-0.297,0.018c-0.575,0.027-1.152,0.045-1.733,0.045
		c-0.008,0-0.015,0-0.023,0c-0.006,0-0.012,0-0.018,0c-0.146,0-0.29-0.008-0.435-0.009c-0.348-0.004-0.696-0.008-1.042-0.023
		c-0.306-0.012-0.609-0.035-0.913-0.054c-0.191-0.013-0.383-0.022-0.573-0.037c-0.327-0.027-0.652-0.062-0.977-0.097
		c-0.165-0.018-0.331-0.034-0.496-0.054c-0.333-0.041-1.301-0.184-1.455-0.209c-0.334-0.055-0.666-0.116-0.997-0.179
		c-0.145-0.028-0.291-0.056-0.436-0.086c-0.337-0.069-0.673-0.144-1.007-0.222c-0.131-0.031-0.262-0.062-0.393-0.095
		c-0.347-0.086-0.692-0.176-1.034-0.271c-0.106-0.03-0.212-0.061-0.318-0.091c-0.368-0.106-0.734-0.217-1.097-0.334
		c-0.06-0.019-0.119-0.04-0.179-0.06c-0.278-0.092-0.558-0.179-0.833-0.277v-0.012c-10.203-3.642-18.303-11.708-21.986-21.892
		h13.368c4.226,7.106,11.977,11.87,20.845,11.87c8.868,0,16.619-4.764,20.845-11.87h0.051c2.131-3.607,3.362-7.808,3.371-12.299
		l-97.091-0.079v0.079h-0.021V84.834h33.219c-4.2-7.279-12.057-12.181-21.065-12.181c-13.361,0-24.201,10.781-24.305,24.117v0.169
		c0,0.036-0.003,0.071-0.003,0.107c0.015,4.476,1.243,8.665,3.368,12.262h0.094c4.226,7.106,11.977,11.87,20.845,11.87
		c4.43,0,8.582-1.189,12.155-3.266v13.313c-3.192,1.132-6.589,1.828-10.12,2.024h0.046c-0.048,0.003-0.097,0.004-0.146,0.007
		c-0.216,0.011-0.433,0.021-0.65,0.029c-0.427,0.016-0.854,0.028-1.285,0.028c-0.571,0-1.138-0.017-1.703-0.043
		c-0.173-0.008-0.345-0.02-0.518-0.031c-0.4-0.024-0.799-0.054-1.196-0.091c-0.185-0.017-0.37-0.035-0.554-0.055
		c-0.42-0.046-0.837-0.099-1.252-0.159c-0.138-0.02-0.276-0.036-0.414-0.058c-0.55-0.086-1.096-0.182-1.637-0.292
		c-0.093-0.019-0.185-0.042-0.277-0.061c-0.45-0.095-0.896-0.198-1.339-0.309c-0.16-0.04-0.319-0.083-0.478-0.125
		c-0.39-0.104-0.777-0.214-1.162-0.33c-0.15-0.045-0.3-0.089-0.449-0.137c-0.474-0.15-0.945-0.309-1.411-0.477
		c-0.043-0.016-0.087-0.029-0.13-0.045c-0.523-0.192-1.039-0.396-1.55-0.611c-0.098-0.041-0.195-0.085-0.292-0.128
		c-0.408-0.176-0.812-0.358-1.213-0.548c-0.126-0.06-0.252-0.121-0.377-0.182c-0.4-0.195-0.795-0.398-1.186-0.608
		c-0.089-0.048-0.179-0.093-0.267-0.142c-0.975-0.533-1.923-1.109-2.841-1.726c-0.073-0.049-0.145-0.1-0.217-0.149
		c-0.391-0.267-0.777-0.541-1.157-0.823c-0.075-0.055-0.15-0.11-0.224-0.166c-1.348-1.014-2.622-2.12-3.815-3.309
		c-0.033-0.033-0.066-0.067-0.099-0.1c-0.384-0.386-0.76-0.78-1.127-1.182c-0.011-0.012-0.022-0.023-0.032-0.035
		c-1.248-1.373-2.392-2.841-3.42-4.393c-6.512,9.829-17.666,16.315-30.34,16.315c-20.088,0-36.373-16.285-36.373-36.373
		s16.285-36.373,36.373-36.373c9.313,0,17.805,3.504,24.239,9.261V24.164h12.134v45.772c6.44-5.795,14.959-9.325,24.305-9.325
		c12.669,0,23.818,6.485,30.325,16.312c6.507-9.827,17.656-16.312,30.324-16.312c4.268,0,8.36,0.741,12.164,2.093V75.92
		c-3.577-2.075-7.73-3.267-12.164-3.267c-9.007,0-16.865,4.903-21.065,12.181h33.228v0.079h24.155v10.799
		c0.014,0.416,0.032,0.831,0.032,1.25h10.936c0.021-20.07,16.297-36.334,36.372-36.334c9.313,0,17.805,3.504,24.239,9.261v-9.466
		h12.134v9.398c6.424-5.725,14.889-9.209,24.171-9.209c20.065,0,36.333,16.258,36.35,36.319H354.098z M281.265,98.957v-2.027h0.04
		c0-0.283,0.015-0.562,0.022-0.843c-0.481-12.963-11.136-23.326-24.216-23.326c-13.387,0-24.239,10.852-24.239,24.239
		s10.852,24.239,24.239,24.239C269.839,121.241,280.268,111.429,281.265,98.957z M221.297,36.298h-12.134v12.134h12.134V36.298z"/>
</g>
<g>
	<path d="M584.682,98.145V72.78h-4.778h-30.797h-49.124v28.394h56.688c-0.06,31.258-25.416,56.581-56.688,56.581
		c-31.31,0-56.691-25.382-56.691-56.691s25.382-56.691,56.691-56.691V16.292c-46.818,0-84.772,37.954-84.772,84.772
		s37.954,84.772,84.772,84.772s84.772-37.954,84.772-84.772C584.756,100.085,584.715,99.116,584.682,98.145z"/>
	<path class="st0" d="M582.555,96.018V70.653h-4.778H546.98h-49.124v28.394h56.688c-0.06,31.258-25.416,56.581-56.688,56.581
		c-31.31,0-56.691-25.382-56.691-56.691s25.382-56.691,56.691-56.691V14.164c-46.818,0-84.772,37.954-84.772,84.772
		s37.954,84.772,84.772,84.772s84.772-37.954,84.772-84.772C582.629,97.957,582.588,96.989,582.555,96.018z"/>
</g>
</svg>
