<?xml version="1.0" encoding="utf-8"?>
<!-- Generator: Adobe Illustrator 23.0.2, SVG Export Plug-In . SVG Version: 6.00 Build 0)  -->
<svg version="1.1" id="Capa_1" xmlns="http://www.w3.org/2000/svg" xmlns:xlink="http://www.w3.org/1999/xlink" x="0px" y="0px"
	 viewBox="0 0 24 24" style="enable-background:new 0 0 24 24;" xml:space="preserve">
<style type="text/css">
	.st0{fill:#FFFFFF;}
</style>
<path d="M20.2,19.8l-2.6-3.6l0.2-0.1C17.9,16,18,16,18,15.9c0-0.1,0-0.2,0-0.3l-0.4-0.8l0,0c2-1.3,2.8-3.9,1.6-6.1l0,0L19,8.5l0,0
	l-3.9-6.7l-0.5-0.9l-0.1-0.1l0,0l0,0h-0.1l-2.5,1.4c-0.1,0-0.1,0.1-0.1,0.2l0,0l0,0l0,0l0,0v1l-0.9-0.5c-0.1,0-0.1,0-0.2,0L2.6,7.5
	L2.5,7.6v0.1l4.4,7.6c0,0,0,0.1,0.1,0.1l0.1,0.2l0,0c0.9,1.3,2.4,2.1,4,2.1c0.7,0,1.5-0.2,2.1-0.5l0,0l0.4,0.8
	c0.1,0.1,0.2,0.2,0.3,0.2s0.1,0,0.2-0.1l0.2-0.1l1.8,4c0.3,0.7,1.1,1.2,1.9,1.2c0.4,0,0.8-0.1,1.2-0.3c0.6-0.3,1-0.9,1.1-1.6
	C20.6,20.8,20.5,20.3,20.2,19.8z M6.2,13.4l-0.5-0.8c0,0,0.1,0,0.2,0c0.2,0,0.4-0.1,0.5-0.1c0.2-0.1,0.4-0.4,0.5-0.6
	c0.1-0.2,0-0.5-0.1-0.7c-0.3-0.5-0.5-0.8-0.6-1v-0.1c0.2,0,0.5,0,0.7-0.1s0.4-0.3,0.5-0.5l0.2,0.4C7.7,10,8,10.2,8.4,10.2
	c0.2,0,0.4,0,0.5-0.1c0.5-0.3,0.7-0.9,0.4-1.3c0.2,0,0.5,0,0.7-0.1s0.4-0.3,0.5-0.5c0.2,0.3,0.5,0.4,0.8,0.4c0.2,0,0.4-0.1,0.5-0.1
	c0.2-0.1,0.4-0.4,0.5-0.6c0.1-0.2,0-0.5-0.1-0.7L11.5,6c0.2,0,0.5,0,0.7-0.1s0.4-0.4,0.5-0.6c0.3,0.3,0.8,0.3,1.2,0.1l0,0
	c0.2-0.1,0.4-0.4,0.5-0.6s0-0.5-0.1-0.7L14,3.6c0.2,0,0.5,0,0.7-0.1C15,3,15.1,2.8,15.2,2.6l2.4,4.2L6.2,13.4z M14,17.9L14,17.9
	l-0.5-0.8l0.1-0.1l3.5-2l0.4,0.8L14,17.9z"/>
<path class="st0" d="M18.2,19.9c-0.2,0-0.3,0-0.5,0.1c-0.5,0.3-0.6,0.9-0.4,1.4c0.2,0.3,0.5,0.5,0.9,0.5c0.2,0,0.4,0,0.5-0.1
	c0.5-0.3,0.6-0.9,0.4-1.4C18.9,20.1,18.5,19.9,18.2,19.9z"/>
</svg>
