<?xml version="1.0" encoding="utf-8"?>
<!-- Generator: Adobe Illustrator 23.0.2, SVG Export Plug-In . SVG Version: 6.00 Build 0)  -->
<svg version="1.1" id="Capa_1" xmlns="http://www.w3.org/2000/svg" xmlns:xlink="http://www.w3.org/1999/xlink" x="0px" y="0px"
	 viewBox="0 0 24 24" style="enable-background:new 0 0 24 24;" xml:space="preserve">
<path d="M18.5,10.5c0-3.5-2.8-6.3-6.3-6.3c-3.5,0-6.3,2.8-6.3,6.3c0,2,1,4,2.6,5.2v1.8H7.8c-0.1,0-0.2,0.1-0.2,0.2s0.1,0.2,0.2,0.2
	h0.7v0.8H7.8c-0.1,0-0.2,0.1-0.2,0.2S7.7,19,7.8,19h0.7v1.3c0,0.1,0.1,0.2,0.2,0.2h1v1.9c0,0.1,0.1,0.2,0.2,0.2h1.4v0.8
	c0,0.1,0.1,0.2,0.2,0.2h1.5c0.1,0,0.2-0.1,0.2-0.2v-0.8h1.4c0.1,0,0.2-0.1,0.2-0.2v-1.9h1c0.1,0,0.2-0.1,0.2-0.2V19h0.7
	c0.1,0,0.2-0.1,0.2-0.2s-0.1-0.2-0.2-0.2h-0.7v-0.8h0.7c0.1,0,0.2-0.1,0.2-0.2s-0.1-0.2-0.2-0.2h-0.7v-1.8
	C17.5,14.5,18.5,12.6,18.5,10.5z M12.7,17.5l2.1-5.4c0-0.1,0-0.1,0-0.2c0-0.1-0.1-0.1-0.2-0.1L13.5,12l-1.2-1.9
	c0-0.1-0.1-0.1-0.2-0.1c0,0,0,0,0,0c-0.1,0-0.1,0-0.2,0.1L10.9,12l-1.1-0.2c-0.1,0-0.1,0-0.2,0.1c0,0.1-0.1,0.1,0,0.2l2.1,5.4H8.9
	v-1.9c0-0.1,0-0.1-0.1-0.2c-1.6-1.1-2.6-2.9-2.6-4.9c0-3.3,2.7-6,6-6c3.3,0,6,2.7,6,6c0,2-1,3.8-2.6,4.9c-0.1,0-0.1,0.1-0.1,0.2v1.9
	H12.7z M11.7,3.2v-2c0-0.1,0.1-0.2,0.2-0.2C12,1,12,1.1,12,1.2v2c0,0.1-0.1,0.2-0.2,0.2C11.8,3.4,11.7,3.3,11.7,3.2z M14.1,3.4
	l0.5-1.9c0-0.1,0.1-0.2,0.2-0.1c0.1,0,0.2,0.1,0.1,0.2l-0.5,1.9c0,0.1-0.1,0.1-0.2,0.1c0,0,0,0,0,0C14.1,3.6,14,3.5,14.1,3.4z
	 M16.4,4.4c-0.1-0.1-0.1-0.2-0.1-0.3l1-1.7c0.1-0.1,0.2-0.1,0.3-0.1c0.1,0.1,0.1,0.2,0.1,0.3l-1,1.7C16.6,4.4,16.6,4.4,16.4,4.4
	C16.5,4.4,16.4,4.4,16.4,4.4z M20,4.4l-1.4,1.4c0,0-0.1,0.1-0.1,0.1c0,0-0.1,0-0.1-0.1c-0.1-0.1-0.1-0.2,0-0.3l1.4-1.4
	C19.8,4,19.9,4,20,4.1C20,4.2,20,4.3,20,4.4z M5.6,6c0.1,0.1,0.1,0.2,0,0.3c0,0-0.1,0.1-0.1,0.1s-0.1,0-0.1-0.1L3.9,4.8
	c-0.1-0.1-0.1-0.2,0-0.3s0.2-0.1,0.3,0L5.6,6z M6.2,2.9c-0.1-0.1,0-0.2,0.1-0.3c0.1-0.1,0.2,0,0.3,0.1l1,1.7c0.1,0.1,0,0.2-0.1,0.3
	c0,0-0.1,0-0.1,0c-0.1,0-0.1,0-0.2-0.1L6.2,2.9z M9.3,3.6L8.8,1.7c0-0.1,0-0.2,0.1-0.2c0.1,0,0.2,0,0.2,0.1l0.5,1.9
	c0,0.1,0,0.2-0.1,0.2c0,0,0,0,0,0C9.4,3.8,9.3,3.7,9.3,3.6z"/>
</svg>
