<?xml version="1.0" encoding="utf-8"?>
<!-- Generator: Adobe Illustrator 23.0.2, SVG Export Plug-In . SVG Version: 6.00 Build 0)  -->
<svg version="1.1" id="Capa_1" xmlns="http://www.w3.org/2000/svg" xmlns:xlink="http://www.w3.org/1999/xlink" x="0px" y="0px"
	 viewBox="0 0 24 24" style="enable-background:new 0 0 24 24;" xml:space="preserve">
<style type="text/css">
	.st0{fill:#1D1D1B;}
</style>
<path class="st0" d="M18.9,20.9h-14V3.1h14V20.9z M11.3,4.9H6.5v5.4h4.8V4.9z M17.2,13.8h-4.8v5.4h4.8V13.8z M17.2,4.8H12v0.3h5.2
	V4.8z M17.2,6.1H12v0.3h5.2V6.1z M17.2,7.4H12v0.3h5.2V7.4z M17.2,8.6H12V9h5.2V8.6z M17.2,9.9H12v0.3h5.2V9.9z M17.2,11.2H6.6v0.3
	h10.6V11.2z M17.2,12.5H6.6v0.3h10.6V12.5z M11.7,13.7H6.6v0.3h5.1V13.7z M11.7,15H6.6v0.3h5.1V15z M11.7,16.3H6.6v0.3h5.1V16.3z
	 M11.7,17.6H6.6v0.3h5.1V17.6z M11.7,18.8H6.6v0.3h5.1V18.8z M6.3,21.6H5.8v2.3h0.5V21.6z M17.9,21.6h-0.5v2.3h0.5V21.6z M6.3,0.1
	H5.8v2.3h0.5V0.1z M17.9,0.1h-0.5v2.3h0.5V0.1z M21.8,4.4V3.8h-2.3v0.5H21.8z M21.8,20v-0.5h-2.3V20H21.8z M4.3,4.4V3.8H2v0.5H4.3z
	 M4.3,20v-0.5H2V20H4.3z"/>
</svg>
