<?xml version="1.0" encoding="utf-8"?>
<!-- Generator: Adobe Illustrator 23.0.2, SVG Export Plug-In . SVG Version: 6.00 Build 0)  -->
<svg version="1.1" id="Capa_1" xmlns="http://www.w3.org/2000/svg" xmlns:xlink="http://www.w3.org/1999/xlink" x="0px" y="0px"
	 viewBox="0 0 24 24" style="enable-background:new 0 0 24 24;" xml:space="preserve">
<g>
	<path d="M20.2,19.8l-2.6-3.6l0.2-0.1c0.1-0.1,0.2-0.1,0.2-0.2c0-0.1,0-0.2,0-0.3l-0.4-0.8c0,0,0,0,0,0c2-1.3,2.8-3.9,1.6-6.1
		c0,0,0,0,0,0L19,8.5c0,0,0,0,0,0l-3.9-6.7l-0.5-0.9c0,0-0.1-0.1-0.1-0.1c0,0,0,0,0,0c0,0,0,0,0,0c0,0-0.1,0-0.1,0l-2.5,1.4
		c-0.1,0-0.1,0.1-0.1,0.2c0,0,0,0,0,0l0,0c0,0,0,0,0,0l0,0l0,1l-0.9-0.5c-0.1,0-0.1,0-0.2,0L2.6,7.5c0,0-0.1,0.1-0.1,0.1
		c0,0,0,0.1,0,0.1l4.4,7.6c0,0,0,0.1,0.1,0.1l0.1,0.2c0,0,0,0,0,0c0.9,1.3,2.4,2.1,4,2.1c0.7,0,1.5-0.2,2.1-0.5c0,0,0,0,0,0l0.4,0.8
		c0.1,0.1,0.2,0.2,0.3,0.2c0.1,0,0.1,0,0.2-0.1l0.2-0.1l1.8,4c0.3,0.7,1.1,1.2,1.9,1.2c0.4,0,0.8-0.1,1.2-0.3c0.6-0.3,1-0.9,1.1-1.6
		C20.6,20.8,20.5,20.3,20.2,19.8z M7.3,15.2l-0.9-1.5l11.4-6.6l0.9,1.5L7.3,15.2C7.3,15.2,7.3,15.2,7.3,15.2z M6.2,13.4l-0.5-0.8
		c0,0,0.1,0,0.2,0c0.2,0,0.4-0.1,0.5-0.1c0.2-0.1,0.4-0.4,0.5-0.6c0.1-0.2,0-0.5-0.1-0.7c-0.3-0.5-0.5-0.8-0.6-1c0,0,0-0.1,0-0.1
		c0.2,0,0.5,0,0.7-0.1c0.2-0.1,0.4-0.3,0.5-0.5l0.2,0.4C7.7,10,8,10.2,8.4,10.2c0.2,0,0.4,0,0.5-0.1c0.5-0.3,0.7-0.9,0.4-1.3
		c0.2,0,0.5,0,0.7-0.1c0.2-0.1,0.4-0.3,0.5-0.5c0.2,0.3,0.5,0.4,0.8,0.4c0.2,0,0.4-0.1,0.5-0.1c0.2-0.1,0.4-0.4,0.5-0.6
		c0.1-0.2,0-0.5-0.1-0.7l-0.7-1.2c0.2,0,0.5,0,0.7-0.1c0.2-0.1,0.4-0.4,0.5-0.6c0.3,0.3,0.8,0.3,1.2,0.1c0,0,0,0,0,0
		c0.2-0.1,0.4-0.4,0.5-0.6c0.1-0.2,0-0.5-0.1-0.7l-0.3-0.5c0.2,0,0.5,0,0.7-0.1C15,3,15.1,2.8,15.2,2.6l2.4,4.2L6.2,13.4z M10.8,3.2
		l1.1,0.7c0.1,0,0.1,0,0.2,0c0,0,0,0,0,0c0,0,0,0,0,0c0.1,0,0.1-0.1,0.1-0.2l-0.1-1.2l2.2-1.3L14.9,2c0.2,0.3,0,0.7-0.3,0.8
		c-0.3,0.2-0.7,0.1-0.9-0.2c-0.1-0.1-0.2-0.1-0.3-0.1c-0.1,0.1-0.1,0.2-0.1,0.3L14,4c0.1,0.1,0.1,0.3,0.1,0.4c0,0.2-0.2,0.3-0.3,0.4
		c0,0,0,0,0,0C13.4,5,13,4.9,12.9,4.6l-0.2-0.3c0,0,0,0,0,0c0,0-0.1-0.1-0.1-0.1c0,0,0,0,0,0c0,0,0,0,0,0s0,0,0,0l0,0c0,0,0,0,0,0
		s0,0,0,0c0,0,0,0,0,0h0l0,0h0c0,0,0,0,0,0c0,0,0,0,0,0l0,0c0,0,0,0,0,0c0,0,0,0,0,0c0,0,0,0,0,0c0,0-0.1,0-0.1,0c0,0,0,0,0,0
		c-0.1,0-0.1,0.1-0.1,0.2c0,0,0,0,0,0c0,0,0,0,0,0c0,0,0,0,0,0h0c0,0,0,0,0,0s0,0,0,0v0c0,0,0,0,0,0l0,0c0,0,0,0,0,0v0v0l0,0v0v0v0
		v0l0,0v0v0v0l0,0v0v0c0,0,0,0,0,0l0,0c0,0,0,0,0,0c0,0,0,0,0,0c0,0,0,0,0,0c0,0,0,0,0,0c0,0,0,0,0,0l0,0c0.2,0.3,0,0.7-0.3,0.8
		c-0.3,0.2-0.7,0.1-0.9-0.2h0C11.2,5.1,11.1,5,11,5.1c-0.1,0.1-0.1,0.2-0.1,0.3c0,0,0,0,0,0L12,7.2C12,7.3,12.1,7.4,12,7.6
		c0,0.2-0.2,0.3-0.3,0.4c-0.3,0.2-0.7,0.1-0.9-0.2l-0.4-0.6c0,0,0,0,0,0c-0.1-0.1-0.2-0.1-0.3-0.1c-0.1,0.1-0.1,0.2-0.1,0.3l0,0
		c0.2,0.3,0,0.7-0.3,0.8C9.6,8.4,9.2,8.3,9,8.1l0,0v0C8.9,8,8.8,7.9,8.7,8C8.7,8,8.6,8.2,8.7,8.2v0h0L9,8.9c0.2,0.3,0,0.7-0.3,0.8
		C8.4,9.9,8,9.8,7.9,9.5l-0.6-1C7.2,8.4,7.1,8.4,7,8.4C7,8.5,6.9,8.6,7,8.7l0,0C7.1,8.8,7.1,9,7,9.1c0,0.2-0.2,0.3-0.3,0.4
		C6.5,9.7,6.2,9.6,6,9.5c-0.1,0-0.1,0-0.2,0c-0.1,0-0.1,0-0.2,0.1c-0.1,0.1,0,0.2,0.3,0.7c0.1,0.2,0.3,0.6,0.6,1
		c0.1,0.1,0.1,0.3,0.1,0.4c0,0.2-0.2,0.3-0.3,0.4c-0.3,0.2-0.7,0.1-0.9-0.2L3,7.8L10.8,3.2z M7.5,15.6L18.9,9c0.9,2,0.2,4.4-1.7,5.5
		L17,14.6c0,0,0,0,0,0l-3.6,2.1c0,0,0,0,0,0l-0.1,0c-0.7,0.4-1.4,0.6-2.2,0.6C9.6,17.4,8.3,16.7,7.5,15.6z M14,17.9
		C14,17.9,14,17.9,14,17.9l-0.5-0.8l0.1-0.1l3.5-2l0.4,0.8L14,17.9z M20.1,21.3c-0.1,0.5-0.5,1-1,1.3c-0.3,0.2-0.7,0.3-1,0.3
		c-0.7,0-1.3-0.4-1.6-1l-1.9-4.1l2.6-1.5l2.6,3.6C20.1,20.4,20.2,20.9,20.1,21.3z"/>
	<path d="M18.2,19.9c-0.2,0-0.3,0-0.5,0.1c-0.5,0.3-0.6,0.9-0.4,1.4c0.2,0.3,0.5,0.5,0.9,0.5c0.2,0,0.4,0,0.5-0.1
		c0.5-0.3,0.6-0.9,0.4-1.4C18.9,20.1,18.5,19.9,18.2,19.9z M18.5,21.5c-0.3,0.2-0.7,0.1-0.9-0.2c-0.2-0.3-0.1-0.7,0.2-0.9
		c0.1-0.1,0.2-0.1,0.3-0.1c0.2,0,0.4,0.1,0.6,0.3C18.9,20.9,18.8,21.3,18.5,21.5z"/>
</g>
</svg>
