<?xml version="1.0" encoding="utf-8"?>
<!-- Generator: Adobe Illustrator 23.0.2, SVG Export Plug-In . SVG Version: 6.00 Build 0)  -->
<svg version="1.1" id="Capa_1" xmlns="http://www.w3.org/2000/svg" xmlns:xlink="http://www.w3.org/1999/xlink" x="0px" y="0px"
	 viewBox="0 0 24 24" style="enable-background:new 0 0 24 24;" xml:space="preserve">
<path d="M23.5,8.3L19.9,4c0,0-0.1-0.1-0.1-0.1H5C5,4,4.9,4,4.9,4L1.3,8.3c0,0,0,0,0,0c0,0,0,0.1,0,0.1v0c0,0,0,0,0,0c0,0,0,0,0,0
	c0,0,0,0,0,0c0,0,0,0.1,0,0.1l11,15.1c0,0,0,0,0,0c0,0,0.1,0.1,0.1,0.1s0.1,0,0.1-0.1c0,0,0,0,0,0l11-15C23.6,8.5,23.6,8.4,23.5,8.3
	z M23,8.3l-6.1,0l-2.5-3.9h5.3L23,8.3z M8.3,8.7l8.2,0l-4.1,14.1L8.3,8.7z M5.1,4.3h5.3L7.9,8.3l-6.1,0L5.1,4.3z M2.4,4.5L2.4,4.5
	c-0.1,0-0.2-0.1-0.2-0.1L1.8,3.1L0.5,2.8c-0.1,0-0.1-0.1-0.1-0.2c0-0.1,0.1-0.2,0.1-0.2L1.8,2l0.4-1.3c0-0.1,0.1-0.1,0.2-0.1h0
	c0.1,0,0.2,0.1,0.2,0.1L2.9,2l1.3,0.4c0.1,0,0.1,0.1,0.1,0.2c0,0.1-0.1,0.2-0.1,0.2L2.9,3.1L2.5,4.4C2.5,4.5,2.4,4.5,2.4,4.5z
	 M5.6,3C5.6,3,5.6,3,5.6,3C5.5,3,5.4,2.9,5.4,2.9L5.1,2L4.3,1.8c-0.1,0-0.1-0.1-0.1-0.2c0-0.1,0.1-0.2,0.1-0.2l0.8-0.3l0.3-0.8
	c0-0.1,0.1-0.1,0.2-0.1h0c0.1,0,0.2,0.1,0.2,0.1L6,1.2l0.8,0.3C6.9,1.4,7,1.5,7,1.6c0,0.1-0.1,0.2-0.1,0.2L6,2L5.8,2.9
	C5.7,2.9,5.7,3,5.6,3z"/>
</svg>
